<?xml version="1.0" encoding="UTF-8" standalone="no"?>
<!DOCTYPE svg PUBLIC "-//W3C//DTD SVG 1.1//EN" "http://www.w3.org/Graphics/SVG/1.1/DTD/svg11.dtd">
<svg width="100%" height="100%" viewBox="0 0 3308 3308" version="1.1" xmlns="http://www.w3.org/2000/svg" xmlns:xlink="http://www.w3.org/1999/xlink" xml:space="preserve" xmlns:serif="http://www.serif.com/" style="fill-rule:evenodd;clip-rule:evenodd;stroke-linejoin:round;stroke-miterlimit:2;">
    <g transform="matrix(1.33333,0,0,1.33333,0,0)">
        <g>
            <g transform="matrix(1,0,0,1,-38.1928,6.09072)">
                <rect x="814.088" y="252.255" width="117.8" height="413.779" style="fill:rgb(33,36,60);"/>
            </g>
            <g transform="matrix(1,0,0,0.794767,-163.266,557.034)">
                <rect x="814.088" y="252.255" width="117.8" height="413.779" style="fill:rgb(33,36,60);"/>
            </g>
            <g transform="matrix(1,0,0,0.794767,-45.4651,862.726)">
                <rect x="814.088" y="252.255" width="117.8" height="413.779" style="fill:rgb(33,36,60);"/>
            </g>
            <g transform="matrix(1,0,0,0.794767,-163.026,1089.55)">
                <rect x="814.088" y="252.255" width="117.8" height="413.779" style="fill:rgb(33,36,60);"/>
            </g>
            <g transform="matrix(1,0,0,0.794767,-163.026,1089.55)">
                <rect x="814.088" y="252.255" width="117.8" height="413.779" style="fill:rgb(33,36,60);"/>
            </g>
            <g transform="matrix(1,0,0,1.21491,-280.826,1216.19)">
                <rect x="814.088" y="252.255" width="117.8" height="413.779" style="fill:rgb(33,36,60);"/>
            </g>
            <g transform="matrix(1,0,0,0.722703,234.874,1740.62)">
                <rect x="814.088" y="252.255" width="117.8" height="413.779" style="fill:rgb(33,36,60);"/>
            </g>
            <g transform="matrix(1,0,0,0.898453,618.761,1623.57)">
                <rect x="814.088" y="252.255" width="117.8" height="413.779" style="fill:rgb(33,36,60);"/>
            </g>
            <g transform="matrix(1,0,0,0.66786,-384.626,1098.77)">
                <rect x="814.088" y="252.255" width="117.8" height="413.779" style="fill:rgb(33,36,60);"/>
            </g>
            <g transform="matrix(1,0,0,0.285476,-384.626,918.878)">
                <rect x="814.088" y="252.255" width="117.8" height="413.779" style="fill:rgb(33,36,60);"/>
            </g>
            <g transform="matrix(6.12323e-17,1,-0.562762,3.44593e-17,1143.44,354.651)">
                <rect x="814.088" y="252.255" width="117.8" height="413.779" style="fill:rgb(33,36,60);"/>
            </g>
            <g transform="matrix(-1,0,0,0.794767,2864.94,557.034)">
                <rect x="814.088" y="252.255" width="117.8" height="413.779" style="fill:rgb(33,36,60);"/>
            </g>
            <g transform="matrix(-1,0,0,1.09634,2747.14,786.653)">
                <rect x="814.088" y="252.255" width="117.8" height="413.779" style="fill:rgb(33,36,60);"/>
            </g>
            <g transform="matrix(-1,0,0,1.48275,2864.94,1116.61)">
                <rect x="814.088" y="252.255" width="117.8" height="413.779" style="fill:rgb(33,36,60);"/>
            </g>
            <g transform="matrix(-6.12323e-17,1,0.562762,3.44593e-17,1558.23,354.651)">
                <rect x="814.088" y="252.255" width="117.8" height="413.779" style="fill:rgb(33,36,60);"/>
            </g>
            <g transform="matrix(-3.10896e-17,1,0.639158,5.61003e-17,1625.15,1172.28)">
                <rect x="814.088" y="252.255" width="117.8" height="413.779" style="fill:rgb(33,36,60);"/>
            </g>
            <g transform="matrix(-9.24644e-17,1,0.483606,1.20361e-17,411.269,1172.28)">
                <rect x="814.088" y="252.255" width="117.8" height="413.779" style="fill:rgb(33,36,60);"/>
            </g>
            <g transform="matrix(2.25396e-16,1,1.28921,2.40245e-16,308.105,1290.08)">
                <rect x="814.088" y="252.255" width="117.8" height="413.779" style="fill:rgb(33,36,60);"/>
            </g>
            <g transform="matrix(2.15022e-16,1,1.08212,2.73548e-16,1159.88,1290.08)">
                <rect x="814.088" y="252.255" width="117.8" height="413.779" style="fill:rgb(33,36,60);"/>
            </g>
            <g transform="matrix(6.12323e-17,1,-0.573974,3.51458e-17,1158.18,-555.742)">
                <rect x="814.088" y="252.255" width="117.8" height="413.779" style="fill:rgb(33,36,60);"/>
            </g>
            <g transform="matrix(6.12323e-17,1,-0.415889,2.54659e-17,1279.03,-450.615)">
                <rect x="814.088" y="252.255" width="117.8" height="413.779" style="fill:rgb(33,36,60);"/>
            </g>
            <g transform="matrix(-1.29295,1.58341e-16,-6.58522e-17,-0.537724,2206.92,1076.16)">
                <rect x="814.088" y="252.255" width="117.8" height="413.779" style="fill:rgb(33,36,60);"/>
            </g>
            <g transform="matrix(-1.29295,1.58341e-16,-6.58522e-17,-0.537724,2766.47,1076.16)">
                <rect x="814.088" y="252.255" width="117.8" height="413.779" style="fill:rgb(33,36,60);"/>
            </g>
            <g transform="matrix(-1,0,0,1,2754.12,6.09072)">
                <rect x="814.088" y="252.255" width="117.8" height="413.779" style="fill:rgb(33,36,60);"/>
            </g>
            <g transform="matrix(-6.12323e-17,1,0.573974,3.51458e-17,1557.75,-555.742)">
                <rect x="814.088" y="252.255" width="117.8" height="413.779" style="fill:rgb(33,36,60);"/>
            </g>
            <g transform="matrix(-6.12323e-17,1,0.415889,2.54659e-17,1436.9,-450.615)">
                <rect x="814.088" y="252.255" width="117.8" height="413.779" style="fill:rgb(33,36,60);"/>
            </g>
        </g>
    </g>
</svg>
